<svg xmlns="http://www.w3.org/2000/svg" viewBox="0 0 160 160"><polygon points="26,0 134,0 160,26 160,134 134,160 26,160 0,134 0,26" fill="#1485C4"/><g transform="translate(47 34) scale(0.4)"><path d="M67.31,172.66C26.62,172.66.3,153.51.3,117.61l2.39-2.39h19.15l2.39,2.39c0,23.93,16.75,33.51,45.47,33.51,21.54,0,38.29-7.18,38.29-26.33,0-21.54-14.36-26.32-47.86-31.11C26.62,88.89,5.08,74.53,5.08,45.82,5.08,24.28,21.84.34,64.91.34c35.9,0,62.22,14.36,62.22,50.26l-2.39,2.39h-19.15l-2.39-2.39c0-19.15-9.57-28.72-40.68-28.72-21.54,0-33.51,9.57-33.51,23.93,0,19.15,11.97,23.93,45.47,28.72,33.51,4.79,57.44,16.75,57.44,50.26,0,26.33-19.15,47.86-64.62,47.86Z" fill="#FFFFFF"/></g></svg>